PathFileType	4	(X/Y/Z)	C:/Users/beibeiliu/ov580/test_trc/capture2\sequence.22_training_dense_right.trc
DataRate	CameraRate	NumFrames	NumMarkers	Units	OrigDataRate	OrigDataStartFrame	OrigNumFrames
120	120	12	19	mm	120	238	380
Frame#	Time	ThumbCMC			ThumbMCP			ThumbIP			ThumbTip			IndexMCP			IndexPIP			IndexTip			MiddleMCP			MiddlePIP			MiddleTip			RingMCP			RingPIP			RingTip			PinkyMCP			PinkyPIP			PinkyTip			BackHand1			BackHand2			BackHand3	
		X0	Y0	Z0	X1	Y1	Z1	X2	Y2	Z2	X3	Y3	Z3	X4	Y4	Z4	X5	Y5	Z5	X6	Y6	Z6	X7	Y7	Z7	X8	Y8	Z8	X9	Y9	Z9	X10	Y10	Z10	X11	Y11	Z11	X12	Y12	Z12	X13	Y13	Z13	X14	Y14	Z14	X15	Y15	Z15	X16	Y16	Z16	X17	Y17	Z17	X18	Y18	Z18	
237	1.975	64.5829	64.0218	51.4733	50.4247	72.1937	26.4093	44.3604	91.1027	7.96598	43.2761	106.604	-9.84727	71.5944	116.187	3.57642	65.9129	100.504	-22.1791	68.3989	66.9068	-6.19109	88.5481	109.512	-9.05606	80.8248	81.9653	-23.9582	82.2731	59.5726	5.92234	105.142	101.813	-12.8895	95.3058	77.5306	-22.9449	94.6551	57.9957	4.60409	130.151	106.794	0.93266	133.188	117.525	-19.55	132.479	131.855	-36.6715	120.409	94.7603	45.7862	121.893	71.9623	67.2631	92.8063	86.7076	64.3115	
238	1.98333	68.5026	60.9073	51.8101	56.6789	71.6682	24.6867	44.0371	89.1345	5.71648	43.3833	103.934	-11.6621	74.6367	115.713	0.525122	64.3185	100.688	-23.7337	69.274	69.0893	-10.3514	91.5473	110.034	-8.55292	86.2363	80.1413	-24.4767	85.4736	60.4387	1.91187	107.991	103.601	-11.5356	100.646	77.1077	-24.4834	98.025	60.3823	8.82969	134.663	107.958	-0.00555854	132.341	117.629	-16.8882	134.736	135.042	-34.5503	122.026	94.6726	47.0211	126.983	70.7058	66.262	93.141	88.7582	62.2751	
239	1.99167	68.0056	65.177	47.3563	59.423	71.5993	23.7597	47.7181	87.6352	3.70751	47.1127	107.004	-16.2367	71.7611	117.031	0.605281	68.4697	101.652	-25.8732	71.7661	69.6717	-12.3766	93.6934	110.957	-9.74176	89.9507	84.9658	-27.9441	85.5797	61.9537	2.23383	111.032	104.276	-15.3712	102.727	76.2046	-24.055	100.956	61.3416	7.61774	136.762	108.292	1.46276	133.571	119.15	-17.4171	139.667	137.051	-37.949	122.128	97.5913	41.7981	124.831	75.9419	64.4427	95.5135	87.5608	61.3646	
240	2	74.685	65.182	46.0106	57.5603	73.0041	19.8701	50.9545	87.3758	1.43508	47.1279	102.373	-17.6898	76.7882	118.31	-5.55652	73.9222	98.2263	-29.456	75.729	71.8069	-15.0905	96.4343	112.037	-13.6505	91.01	87.1337	-28.995	88.2396	63.6134	2.51968	112.603	106.156	-14.309	104.342	78.4644	-24.8923	100.935	62.9141	1.24828	138.791	115.524	-1.99382	135.615	123.42	-18.3787	138.862	137.436	-37.833	127.199	98.6954	43.5315	130.907	77.4043	67.1598	96.9158	92.4147	59.0625	
241	2.00833	75.0328	66.6328	44.7164	59.9137	73.9422	16.949	53.657	89.8846	-1.82487	53.3719	105.943	-21.2	77.2915	117.519	-5.52545	75.4572	101.649	-30.9034	77.466	71.6907	-16.5443	96.7999	112.939	-13.6538	91.8613	87.2539	-30.4676	96.5786	64.4784	-2.71317	114.527	107.674	-15.5821	108.015	78.4977	-26.4543	107.234	62.6148	0.912156	139.121	114.974	-0.405421	138.547	124.855	-20.1356	142.42	141.438	-41.7599	126.488	101.773	43.8034	128.165	79.3274	64.6283	97.2253	93.9875	56.4268	
242	2.01667	75.4928	67.6224	42.8025	64.7525	73.7111	17.026	52.4135	88.0518	-3.91554	53.8276	101.563	-20.3878	75.4695	117.926	-4.22478	75.5767	101.046	-32.3541	82.2461	71.186	-17.4895	99.1676	112.802	-14.2848	92.1931	84.8555	-30.817	96.9625	64.1631	-4.31552	116.969	107.22	-14.817	108.291	79.4445	-27.8434	108.155	62.6514	4.08074	140.859	114.113	-0.970291	141.266	126.468	-23.6261	142.731	143.018	-41.5993	124.918	102.612	39.1304	130.712	80.3783	64.1938	97.4952	90.6355	57.7232	
243	2.025	74.6912	63.7213	44.0009	62.8922	71.5938	16.4006	54.4266	88.6568	-4.53507	50.2035	102.241	-22.4288	77.2786	118.416	-11.5277	74.5595	100.033	-33.7843	80.8009	70.3223	-19.205	99.6572	113.302	-14.1893	95.9674	87.3122	-34.1085	96.0601	63.8995	-4.02657	114.491	106.839	-17.7206	107.852	80.7042	-28.7067	105.673	63.2687	-1.03756	137.167	114.768	-3.31088	138.558	126.272	-24.5005	141.885	138.05	-41.3092	128.987	104.493	37.2584	130.121	81.6773	60.9947	96.1697	92.8977	55.5559	
244	2.03333	75.4311	64.1943	43.3598	64.6037	74.1586	14.9811	53.8056	91.0582	-6.96644	50.3209	103.758	-23.7828	79.1642	118.626	-10.5363	76.1536	99.9423	-34.924	80.7729	70.585	-16.6637	96.519	114.777	-15.1987	96.2857	87.2801	-33.4969	94.8295	65.8386	-2.45569	116.741	108.53	-19.629	112.223	80.4876	-30.8569	105.854	64.6396	2.35104	140	116.285	-3.95749	138.595	126.723	-24.3818	143.027	141.809	-46.4619	125.767	104.572	40.4263	130.248	82.2078	60.8339	95.2934	96.2817	52.0731	
245	2.04167	74.673	67.4567	43.0621	63.2295	77.253	14.7902	54.5273	90.906	-3.80409	52.7884	105.697	-23.702	78.1884	120.909	-8.61938	73.2451	105.11	-34.5603	81.8457	74.1501	-16.3144	99.192	117.068	-18.5137	95.4616	90.6285	-34.0865	94.0621	67.6274	-6.02785	118.64	110.965	-19.5344	108.804	82.5169	-29.7943	107.803	67.3489	-2.00916	140.444	121.01	-6.91681	138.437	128.952	-24.6965	139.828	143.649	-45.0951	125.851	108.27	36.13	128.728	84.7651	61.9486	94.7282	95.7153	53.2842	
246	2.05	70.8325	72.9188	42.1322	60.2519	81.2507	14.6918	54.0528	95.0205	-4.74185	52.2538	111.447	-24.3145	76.8344	124.198	-9.29343	72.7876	105.219	-35.4335	78.9594	77.7293	-19.869	97.1222	120.132	-19.7401	95.4191	91.9931	-34.0244	91.0276	72.7496	-1.97326	111.718	115.194	-18.1898	109.019	84.8756	-30.3401	106.863	71.0306	-0.236947	136.963	122.592	-4.54455	137.53	131.608	-21.5504	139.215	149.213	-45.8916	127.498	111.503	37.8274	128.789	88.6681	61.6039	92.6398	99.2578	54.0214	
247	2.05833	67.9084	77.0543	42.4248	57.0077	85.496	15.1674	49.468	99.9389	-5.20375	45.6125	114.545	-23.1286	71.7713	129.152	-8.53859	70.7333	109.758	-34.2908	73.929	81.343	-16.2483	92.4665	124.474	-17.2188	90.0419	96.8537	-33.2275	88.5777	76.9608	-4.23546	112.191	118.386	-21.9018	108.472	89.6514	-29.6136	103.643	75.5756	1.03158	137.605	128.555	-5.72518	135.048	137.529	-23.7402	140.489	150.339	-44.7764	125.005	111.688	39.4586	123.223	92.7141	60.7102	90.9395	106.363	53.4191	
248	2.06667	67.8532	81.1757	41.2802	56.0081	87.9031	15.8131	47.4067	105.732	-6.1445	43.3821	118.969	-24.8337	70.2212	133.662	-10.1702	71.1056	117.116	-34.7721	75.4223	87.4436	-19.7153	93.314	128.878	-20.2902	87.3889	102.169	-33.8769	87.9207	81.2056	-4.81463	108.96	123.094	-18.1217	103.225	97.9034	-31.075	100.425	80.0045	0.629919	134.694	131.537	-4.61863	134.351	140.862	-24.6109	139.761	156.857	-46.7938	121.731	118.111	39.5241	126.265	97.9588	62.2712	91.3554	109.334	51.6965	
